<?xml version="1.0" encoding="UTF-8" standalone="no"?>
<!-- Created with Inkscape (http://www.inkscape.org/) -->

<svg
   xmlns:dc="http://purl.org/dc/elements/1.1/"
   xmlns:cc="http://creativecommons.org/ns#"
   xmlns:rdf="http://www.w3.org/1999/02/22-rdf-syntax-ns#"
   xmlns:svg="http://www.w3.org/2000/svg"
   xmlns="http://www.w3.org/2000/svg"
   version="1.1"
   width="24"
   height="24"
   id="svg2"
   xml:space="preserve"><metadata
     id="metadata8"><rdf:RDF><cc:Work
         rdf:about=""><dc:format>image/svg+xml</dc:format><dc:type
           rdf:resource="http://purl.org/dc/dcmitype/StillImage" /><dc:title></dc:title></cc:Work></rdf:RDF></metadata><defs
     id="defs6" /><g
     transform="matrix(1.25,0,0,-1.25,518.83532,233.47816)"
     id="g10"><path
       d="m -396.92792,186.78253 -17.08061,0 c -0.58544,0 -1.05973,-0.47429 -1.05973,-1.05966 l 0,-17.08068 c 0,-0.58522 0.47429,-1.05966 1.05973,-1.05966 l 9.1956,0 0,7.43522 -2.50211,0 0,2.89769 2.50211,0 0,2.13694 c 0,2.47994 1.5146,3.8303 3.72694,3.8303 1.05966,0 1.97041,-0.0789 2.23593,-0.11416 l 0,-2.59167 -1.53445,-7.2e-4 c -1.20311,0 -1.43605,-0.57169 -1.43605,-1.41064 l 0,-1.85005 2.86936,0 -0.37365,-2.89769 -2.49571,0 0,-7.43522 4.89264,0 c 0.58522,0 1.05966,0.47444 1.05966,1.05966 l 0,17.08068 c 0,0.58537 -0.47444,1.05966 -1.05966,1.05966"
       id="path46"
       style="fill:#3d539f;fill-opacity:1;fill-rule:nonzero;stroke:none" /></g></svg>